<svg xmlns="http://www.w3.org/2000/svg" viewBox="0 0 1200 800" role="img" aria-labelledby="t d">
  <title id="t">Shared lounge and reception area at Standard Guest House</title>
  <desc id="d">Shared lounge and reception area with plush seating, available to guests staying in the Family Room and throughout the guest house.</desc>
  <rect width="1200" height="800" fill="#faf6ee"/>
  <rect width="1200" height="460" fill="#f3ede0"/>
  <g stroke="#e5d7bd" stroke-width="2">
    <rect x="0" y="460" width="1200" height="340" fill="#fbf9f4"/>
    <line x1="0" y1="520" x2="1200" y2="520"/><line x1="0" y1="580" x2="1200" y2="580"/><line x1="0" y1="640" x2="1200" y2="640"/><line x1="0" y1="700" x2="1200" y2="700"/><line x1="0" y1="760" x2="1200" y2="760"/>
    <line x1="150" y1="460" x2="150" y2="800"/><line x1="300" y1="460" x2="300" y2="800"/><line x1="450" y1="460" x2="450" y2="800"/><line x1="600" y1="460" x2="600" y2="800"/><line x1="750" y1="460" x2="750" y2="800"/><line x1="900" y1="460" x2="900" y2="800"/><line x1="1050" y1="460" x2="1050" y2="800"/>
  </g>
  <rect x="70" y="60" width="1060" height="220" fill="#cfe3f2" stroke="#4f382a" stroke-width="6"/>
  <line x1="335" y1="60" x2="335" y2="280" stroke="#4f382a" stroke-width="4"/>
  <line x1="600" y1="60" x2="600" y2="280" stroke="#4f382a" stroke-width="4"/>
  <line x1="865" y1="60" x2="865" y2="280" stroke="#4f382a" stroke-width="4"/>
  <!-- plush sofa -->
  <rect x="140" y="470" width="420" height="140" rx="24" fill="#a97f47"/>
  <rect x="140" y="440" width="420" height="70" rx="24" fill="#c19c65"/>
  <rect x="120" y="500" width="40" height="120" rx="14" fill="#8a643a"/>
  <rect x="540" y="500" width="40" height="120" rx="14" fill="#8a643a"/>
  <circle cx="230" cy="480" r="26" fill="#f3ede0"/>
  <circle cx="330" cy="480" r="26" fill="#e5d7bd"/>
  <!-- armchairs -->
  <rect x="680" y="500" width="150" height="130" rx="20" fill="#749d63"/>
  <rect x="670" y="530" width="30" height="100" rx="12" fill="#547746"/>
  <rect x="810" y="530" width="30" height="100" rx="12" fill="#547746"/>
  <rect x="900" y="500" width="150" height="130" rx="20" fill="#9cbb8e"/>
  <rect x="890" y="530" width="30" height="100" rx="12" fill="#749d63"/>
  <rect x="1030" y="530" width="30" height="100" rx="12" fill="#749d63"/>
  <!-- coffee table -->
  <ellipse cx="620" cy="700" rx="90" ry="26" fill="#6d4e30"/>
  <rect x="590" y="660" width="60" height="40" fill="#8a643a"/>
  <rect x="20" y="20" width="440" height="46" rx="8" fill="#101a0d" opacity="0.8"/>
  <text x="240" y="50" text-anchor="middle" font-family="Georgia, serif" font-size="20" fill="#f4f7f3">Shared Lounge &amp; Reception</text>
</svg>
