<svg xmlns="http://www.w3.org/2000/svg" viewBox="0 0 1200 800" role="img" aria-labelledby="t d">
  <title id="t">Family Room at Standard Guest House</title>
  <desc id="d">Spacious family room with two beds, air conditioning, mosquito netting, wall-mounted TV, and tile flooring.</desc>
  <rect width="1200" height="800" fill="#f4f7f3"/>
  <rect width="1200" height="500" fill="#e2ebde"/>
  <g stroke="#c3d6bb" stroke-width="2">
    <rect x="0" y="500" width="1200" height="300" fill="#f7faf5"/>
    <line x1="0" y1="560" x2="1200" y2="560"/><line x1="0" y1="620" x2="1200" y2="620"/><line x1="0" y1="680" x2="1200" y2="680"/><line x1="0" y1="740" x2="1200" y2="740"/>
    <line x1="150" y1="500" x2="150" y2="800"/><line x1="300" y1="500" x2="300" y2="800"/><line x1="450" y1="500" x2="450" y2="800"/><line x1="600" y1="500" x2="600" y2="800"/><line x1="750" y1="500" x2="750" y2="800"/><line x1="900" y1="500" x2="900" y2="800"/><line x1="1050" y1="500" x2="1050" y2="800"/>
  </g>
  <rect x="500" y="50" width="200" height="46" rx="6" fill="#ffffff" stroke="#c3d6bb" stroke-width="3"/>
  <line x1="518" y1="73" x2="682" y2="73" stroke="#9cbb8e" stroke-width="4"/>
  <rect x="960" y="90" width="190" height="115" rx="4" fill="#101a0d"/>
  <rect x="972" y="102" width="166" height="91" fill="#749d63"/>
  <!-- Bed 1 -->
  <g>
    <path d="M60 200 L300 200 L340 400 L20 400 Z" fill="#ffffff" opacity="0.55" stroke="#9cbb8e" stroke-width="2"/>
    <circle cx="180" cy="195" r="12" fill="#9cbb8e"/>
    <rect x="0" y="400" width="380" height="130" rx="10" fill="#547746"/>
    <rect x="15" y="372" width="350" height="45" rx="10" fill="#ffffff" stroke="#e2ebde" stroke-width="2"/>
    <rect x="0" y="530" width="380" height="80" rx="8" fill="#3f5c34"/>
  </g>
  <!-- Bed 2 -->
  <g>
    <path d="M900 200 L1140 200 L1180 400 L860 400 Z" fill="#ffffff" opacity="0.55" stroke="#9cbb8e" stroke-width="2"/>
    <circle cx="1020" cy="195" r="12" fill="#9cbb8e"/>
    <rect x="840" y="400" width="360" height="130" rx="10" fill="#a97f47"/>
    <rect x="855" y="372" width="330" height="45" rx="10" fill="#ffffff" stroke="#e2ebde" stroke-width="2"/>
    <rect x="840" y="530" width="360" height="80" rx="8" fill="#8a643a"/>
  </g>
  <!-- Center desk -->
  <rect x="480" y="440" width="240" height="18" fill="#8a643a"/>
  <rect x="490" y="458" width="14" height="110" fill="#6d4e30"/>
  <rect x="696" y="458" width="14" height="110" fill="#6d4e30"/>
  <rect x="540" y="520" width="70" height="70" fill="#547746"/>
  <rect x="20" y="20" width="300" height="46" rx="8" fill="#101a0d" opacity="0.8"/>
  <text x="170" y="50" text-anchor="middle" font-family="Georgia, serif" font-size="22" fill="#f4f7f3">Family Room</text>
</svg>
